# xmcd CD database file
# Copyright (C) 1993-1998 Ti Kan
#
# Track frame offsets:
# 150
# 13687
# 34537
# 48757
# 62857
# 81907
# 95302
# 106545
# 119475
# 141712
# 164775
# 177140
# 200835
#
# Disc length: 2911 seconds
#
# Revision: 0
# Processed by: cddbd v1.4b41PL1 Copyright (c) Steve Scherf et al.
# Submitted via: inCDius 1.1
#
DISCID=b30b5d0d
DTITLE=Hans Theesink - Hard Road Blues
DYEAR=1900
DGENRE=
TTITLE0=Big Bill's Guitar
TTITLE1=Hard Road Blues
TTITLE2=You Make Me Feel So Good
TTITLE3=Prison Blues
TTITLE4=Two Trains
TTITLE5=Blind Willie
TTITLE6=Sugar Babe
TTITLE7=Minnibelle
TTITLE8=Vicksburg Is My Home
TTITLE9=One Kind Favour
TTITLE10=Shotgun Blues
TTITLE11=Cypress Grove
TTITLE12=Sitting On Top Of The World
EXTD=
EXTT0=
EXTT1=
EXTT2=
EXTT3=
EXTT4=
EXTT5=
EXTT6=
EXTT7=
EXTT8=
EXTT9=
EXTT10=
EXTT11=
EXTT12=
PLAYORDER=
